<mxfile host="Electron" agent="Mozilla/5.0 (Windows NT 10.0; Win64; x64) AppleWebKit/537.36 (KHTML, like Gecko) draw.io/24.7.17 Chrome/128.0.6613.36 Electron/32.0.1 Safari/537.36" version="24.7.17">
  <diagram name="Page-1" id="f1b7ffb7-ca1e-a977-7cf5-a751b3c06c05">
    <mxGraphModel dx="1434" dy="884" grid="1" gridSize="10" guides="1" tooltips="1" connect="1" arrows="1" fold="1" page="1" pageScale="1" pageWidth="826" pageHeight="1169" background="none" math="0" shadow="0">
      <root>
        <mxCell id="0" />
        <mxCell id="1" parent="0" />
        <mxCell id="U4MEnaKeAxZYiRRCWtu5-73" value="" style="rounded=0;whiteSpace=wrap;html=1;" vertex="1" parent="1">
          <mxGeometry x="20" y="722" width="360" height="270" as="geometry" />
        </mxCell>
        <mxCell id="U4MEnaKeAxZYiRRCWtu5-74" value="" style="rounded=1;whiteSpace=wrap;html=1;" vertex="1" parent="1">
          <mxGeometry x="30" y="772" width="340" height="90" as="geometry" />
        </mxCell>
        <mxCell id="U4MEnaKeAxZYiRRCWtu5-65" value="" style="rounded=1;whiteSpace=wrap;html=1;arcSize=1;fillOpacity=100;strokeOpacity=100;" vertex="1" parent="1">
          <mxGeometry x="20" y="100" width="360" height="610" as="geometry" />
        </mxCell>
        <mxCell id="2" value="Titre de l&#39;article" style="text;spacingTop=-5;fontSize=18;fontStyle=0" parent="1" vertex="1">
          <mxGeometry x="100" y="25" width="230" height="20" as="geometry" />
        </mxCell>
        <mxCell id="5" value="Chapitre 1" style="text;spacingTop=-5;strokeColor=default;align=center;" parent="1" vertex="1">
          <mxGeometry x="20" y="70" width="120" height="20" as="geometry" />
        </mxCell>
        <mxCell id="6" value="Chapitre 2" style="text;spacingTop=-5;strokeColor=default;align=center;" parent="1" vertex="1">
          <mxGeometry x="150" y="70" width="110" height="20" as="geometry" />
        </mxCell>
        <mxCell id="9" value="Lorem ipsum dolor sit amet, consectetur adipisicing elit, sed do eiusmod tempor incididunt ut labore et dolore magna aliqua. Ut enim ad minim veniam, quis nostrud exercitation ullamco laboris nisi ut aliquip ex ea commodo consequat. Duis aute irure dolor in reprehenderit in voluptate velit esse cillum dolore eu fugiat nulla pariatur. Excepteur sint occaecat cupidatat non proident, sunt in culpa qui officia deserunt mollit anim id est laborum.&#xa;&#xa;&#xa;di consequatur? Quis autem vel eum iure reprehenderit qui in ea voluptate velit esse quam nihil molestiae consequatur, vel illum qui dolorem eum fugiat quo voluptas nulla pariatur?" style="text;spacingTop=-5;whiteSpace=wrap;align=left" parent="1" vertex="1">
          <mxGeometry x="30" y="153" width="340" height="207" as="geometry" />
        </mxCell>
        <mxCell id="20" value="" style="verticalLabelPosition=bottom;verticalAlign=top;strokeWidth=1;shape=mxgraph.mockup.graphics.iconGrid;strokeColor=#CCCCCC;gridSize=1,1;" parent="1" vertex="1">
          <mxGeometry x="20" y="15" width="40" height="40" as="geometry" />
        </mxCell>
        <mxCell id="21" value="Logo" style="text;spacingTop=-5;align=center" parent="1" vertex="1">
          <mxGeometry x="20" y="20" width="40" height="40" as="geometry" />
        </mxCell>
        <mxCell id="22" value="Chapitre 3&#xa;" style="text;spacingTop=-5;strokeColor=default;align=center;" parent="1" vertex="1">
          <mxGeometry x="270" y="70" width="110" height="20" as="geometry" />
        </mxCell>
        <mxCell id="25" value="" style="verticalLabelPosition=bottom;verticalAlign=top;strokeWidth=1;shape=mxgraph.mockup.graphics.iconGrid;strokeColor=#CCCCCC;gridSize=1,1;" parent="1" vertex="1">
          <mxGeometry x="20" y="360" width="360" height="200" as="geometry" />
        </mxCell>
        <mxCell id="41" value="" style="verticalLabelPosition=bottom;verticalAlign=top;strokeWidth=1;shape=mxgraph.mockup.misc.rating;strokeColor=#999999;fillColor=#ffff00;emptyFillColor=#ffffff;grade=4;ratingScale=5;ratingStyle=star;" parent="1" vertex="1">
          <mxGeometry x="279.99999999999994" y="782" width="77.5" height="10" as="geometry" />
        </mxCell>
        <mxCell id="42" value="Notes et commentaires" style="text;spacingTop=-5;" parent="1" vertex="1">
          <mxGeometry x="25" y="742" width="145" height="20" as="geometry" />
        </mxCell>
        <mxCell id="48" value="Tags: Tag2 Tag3 Tag4" style="text;spacingTop=-5;" parent="1" vertex="1">
          <mxGeometry x="260" y="30" width="127.5" height="20" as="geometry" />
        </mxCell>
        <mxCell id="U4MEnaKeAxZYiRRCWtu5-66" value="Chapitre 1" style="text;strokeColor=none;fillColor=none;html=1;fontSize=24;fontStyle=1;verticalAlign=middle;align=center;" vertex="1" parent="1">
          <mxGeometry x="40" y="110" width="100" height="40" as="geometry" />
        </mxCell>
        <mxCell id="U4MEnaKeAxZYiRRCWtu5-100" value="&lt;h1 style=&quot;margin-top: 0px;&quot;&gt;&lt;font style=&quot;font-size: 17px;&quot;&gt;Heading&lt;/font&gt;&lt;/h1&gt;&lt;p&gt;Lorem ipsum dolor sit amet, consectetur adipisicing elit, sed do eiusmod tempor incididunt ut labore et dolore magna aliqua.&lt;/p&gt;" style="text;html=1;whiteSpace=wrap;overflow=hidden;rounded=0;" vertex="1" parent="1">
          <mxGeometry x="40" y="762" width="310" height="120" as="geometry" />
        </mxCell>
        <mxCell id="U4MEnaKeAxZYiRRCWtu5-101" value="" style="rounded=1;whiteSpace=wrap;html=1;" vertex="1" parent="1">
          <mxGeometry x="30" y="872" width="340" height="100" as="geometry" />
        </mxCell>
        <mxCell id="U4MEnaKeAxZYiRRCWtu5-102" value="" style="verticalLabelPosition=bottom;verticalAlign=top;strokeWidth=1;shape=mxgraph.mockup.misc.rating;strokeColor=#999999;fillColor=#ffff00;emptyFillColor=#ffffff;grade=4;ratingScale=5;ratingStyle=star;" vertex="1" parent="1">
          <mxGeometry x="282.49999999999994" y="882" width="77.5" height="10" as="geometry" />
        </mxCell>
        <mxCell id="U4MEnaKeAxZYiRRCWtu5-103" value="&lt;h1 style=&quot;margin-top: 0px;&quot;&gt;&lt;font style=&quot;font-size: 17px;&quot;&gt;Heading&lt;/font&gt;&lt;/h1&gt;&lt;p&gt;Lorem ipsum dolor sit amet, consectetur adipisicing elit, sed do eiusmod tempor incididunt ut labore et dolore magna aliqua.&lt;/p&gt;" style="text;html=1;whiteSpace=wrap;overflow=hidden;rounded=0;" vertex="1" parent="1">
          <mxGeometry x="40" y="872" width="320" height="90" as="geometry" />
        </mxCell>
        <mxCell id="U4MEnaKeAxZYiRRCWtu5-104" value="Sed ut perspiciatis unde omnis iste natus error sit voluptatem accusantium doloremque laudantium, totam rem aperiam, eaque ipsa quae ab illo inventore veritatis et quasi architecto beatae vitae dicta sunt explicabo. Nemo enim ipsam voluptatem quia voluptas sit aspernatur aut odit aut fugit, sed quia consequuntur magni dolores eos qui ratione voluptatem sequi nesciunt. Neque porro quisquam est, qui do" style="text;spacingTop=-5;whiteSpace=wrap;align=left" vertex="1" parent="1">
          <mxGeometry x="25" y="590" width="340" height="107" as="geometry" />
        </mxCell>
      </root>
    </mxGraphModel>
  </diagram>
</mxfile>
